# xmcd
#
# Track frame offsets:
#	150
#	16449
#	29885
#	52377
#	65970
#	81342
#	98733
#	115030
#	128466
#	150958
#	164550
#	179920
#
# Disc length: 2630 seconds
#
# Revision: 1
# Processed by: cddbd v1.5.2PL0 Copyright (c) Steve Scherf et al.
# Submitted via: audiograbber 1.83.01
#
DISCID=ab0a440c
DTITLE=Various Artist - CB20037 Hot Hits Vol. 37
DYEAR=1900
DGENRE=Country
TTITLE0=Martina McBride - Happy Girl (Vocals)
TTITLE1=Deryl Dodd - Time On My Hands (Vocals)
TTITLE2=Wynonna Judd - Always Will (Vocals)
TTITLE3=Blake and Brian - Amnesia (Vocals)
TTITLE4=Kinley's, The - Dance In The Boat (Vocals)
TTITLE5=John Berry - Over My Shoulder (Vocals)
TTITLE6=Martina McBride - Happy Girl
TTITLE7=Deryl Dodd - Time On My Hands
TTITLE8=Wynonna Judd - Always Will
TTITLE9=Blake and Brian - Amnesia
TTITLE10=Kinley's, The - Dance In The Boat
TTITLE11=John Berry - Over My Shoulder
EXTD=
EXTT0=
EXTT1=
EXTT2=
EXTT3=
EXTT4=
EXTT5=
EXTT6=
EXTT7=
EXTT8=
EXTT9=
EXTT10=
EXTT11=
PLAYORDER=
